# xmcd
#
# Track frame offsets: 
#        150
#        16455
#        40395
#        55333
#        76210
#        98365
#        106770
#        142712
#        166940
#        185738
#        206788
#        232028
#        246670
#        262305
#        293180
#        333722
#
# Disc length: 4753 seconds
#
# Revision: 0
# Processed by: cddbd v1.5.2PL0 Copyright (c) Steve Scherf et al.
# Submitted via: ExactAudioCopy v0.99pb5
#
DISCID=eb128f10
DTITLE=Stevie Ray Vaughan and Friends - Scuttle Buttin': A Compilation
DYEAR=2009
DGENRE=Blues
TTITLE0=01. Pride and Joy
TTITLE1=02. Texas Flood
TTITLE2=03. Testify
TTITLE3=04. Rude Mood
TTITLE4=05. Lenny
TTITLE5=06. Scuttle Buttin'
TTITLE6=07. Woodoo Child (Slight Return)
TTITLE7=08. Say What!
TTITLE8=09. Crossfire
TTITLE9=10. Tightrope
TTITLE10=11. Wall of Denial
TTITLE11=12. Long Way from Home
TTITLE12=13. Telephone Song
TTITLE13=14. Little Wing
TTITLE14=15. Call it Stormy Monday
TTITLE15=16. Ask Me No Questions
EXTD=
EXTT0=
EXTT1=
EXTT2=
EXTT3=
EXTT4=
EXTT5=
EXTT6=
EXTT7=
EXTT8=
EXTT9=
EXTT10=
EXTT11=
EXTT12=
EXTT13=
EXTT14=
EXTT15=
PLAYORDER=
